<svg xmlns="http://www.w3.org/2000/svg" shape-rendering="geometricPrecision" text-rendering="geometricPrecision" image-rendering="optimizeQuality" fill-rule="evenodd" clip-rule="evenodd" viewBox="0 0 448 448"><path fill="currentColor" d="M229.5-.5h1c.3 1.3.7 1.3 1 0h1c1 4.6 1.3 9.2 1 14h22v20c-7.8-.5-15.5 0-23 1.5.8 14.4 1.3 29 1.5 43.5 7.9 9.2 7 17.7-2.5 25.5-18.3 5.3-26.8-1.5-25.5-20.5 1.2-3 2.8-5.6 5-8 .6-14 .4-28-.5-42h-22v-20h22c1-4.1 1.3-8.5 1-13h17c.7 0 1-.3 1-1Z"/><path fill="currentColor" d="M210.5-.5h18v1h-17c.3 4.5 0 8.9-1 13v-14Z" opacity=".1"/><path fill="currentColor" d="M31.5 18.5c13.2-.6 20.9 5.5 23 18.5-1.6 11-7.9 17.2-19 18.5-17.3-3.8-22.2-13.8-14.5-30 3-3.2 6.5-5.6 10.5-7ZM405.5 18.5c17.3.4 24.4 9.1 21.5 26-5.6 9.4-13.8 12.6-24.5 9.5-13.8-10.1-14.5-21.1-2-33 1.8-.8 3.5-1.6 5-2.5Z"/><path fill="currentColor" d="M39.5 90.5c-1 7.1-1.3 14.5-1 22h20v19h-39c-1-20-1.3-40-1-60 10.3.2 20.7 0 31-.5 16.8-5.7 24.4-17.5 23-35.5h57v48h-19c-.7-9.3-1-18.6-1-28-11-.3-22 0-33 1 1.1 8.6 1.3 17.3.5 26-.2 3-1.4 5.5-3.5 7.5A46 46 0 0 1 62 91.5c-7.3-.6-14.8-1-22.5-1ZM426.5 72.5c-1 19.5-1.3 39.2-1 59-23.8 1-47.8 1.3-72 1 .4-5.7-.8-11-3.5-16-5.5-6.2-11.3-12-17.5-17.5 7.3-.7 14.7-.7 22 0 3.4 4.2 7.1 8.2 11 12 13.7.5 27.3.7 41 .5-.6-5.9-.6-11.7 0-17.5-.3-1.3-1-2.3-2-3-10 .5-20 .5-30 0-2.1-1.1-4-2.6-5.5-4.5a184.5 184.5 0 0 1-1.5-31h-32c.2 8.3 0 16.7-.5 25a6.8 6.8 0 0 1-1.5 3c-6 1-12 1-18 0-1-15.6-1.3-31.3-1-47 18.8-.6 37.8-.8 57-.5 0 13.1 5 23.8 15 32 2.5 1.6 5.1 2.6 8 3 10.8.2 21.5.7 32 1.5ZM183.5 52.5c3.3.7 6.6 1 10 1 .1 6.7-.4 13.4-1.5 20-13.4 13.7-27 27-41 40a67 67 0 0 1-11.5-11c-1-1.7-.9-3.4.5-5 15-14.6 29.6-29.6 43.5-45ZM254.5 52.5c2.4-.2 4.8.1 7 1 14.7 14.8 29.2 29.8 43.5 45 .7 1 .7 2 0 3-3.6 4.6-7.6 9-12 13-13.3-14.3-27-28.3-41-42-.6-1.5-1.5-2.8-2.5-4 1-5 1.3-10 1-15 1.6.3 3 0 4-1Z"/><path fill="currentColor" d="M426.5 72.5c0 11.2.4 22.5 1 34 .1 8.5-.6 16.9-2 25-.3-19.8 0-39.5 1-59Z"/><path fill="currentColor" d="M93.5 98.5c6-.2 12 0 18 .5-.5.7-1.2 1.2-2 1.5l-16-2Z" opacity=".4"/><path fill="currentColor" d="m93.5 98.5 16 2c-4.3 4.8-8.8 9.5-13.5 14a32.4 32.4 0 0 0-5.5 18h-13c-.2-7 0-14 .5-21L90.5 99c1-.5 2-.6 3-.5Z"/><path fill="currentColor" d="M39.5 90.5v21c6.5-.3 12.9 0 19 1h-20c-.3-7.5 0-14.9 1-22Z" opacity=".5"/><path fill="currentColor" d="M187.5 104.5c5.8 4 10.8 8.8 15 14.5-31 31.4-62.6 62.6-94.5 93.5-5.2-4.9-10-10-14.5-15.5 31.5-30.7 62.8-61.5 94-92.5ZM255.5 104.5c31.6 30.1 62.8 60.8 93.5 92 .7.7.7 1.3 0 2-4 5-8.4 9.7-13 14-31.8-30.8-63.3-62-94.5-93.5a96.3 96.3 0 0 1 14-14.5ZM123.5 114.5c4.8 4.3 9.5 8.8 14 13.5-4.5 5.6-9.5 10.8-15 15.5-5.2-4-9.6-9-13-14.5a96.2 96.2 0 0 1 14-14.5ZM320.5 114.5a110 110 0 0 1 15 15.5c-3.8 5-8.1 9.5-13 13.5-5.5-4.7-10.5-9.9-15-15.5 3.9-5 8.2-9.5 13-13.5ZM221.5 128.5l3 1.5c32.4 32.2 64.7 64.7 97 97.5a8209.7 8209.7 0 0 1-99 98 6933 6933 0 0 1-100-98l1.5-3a13273 13273 0 0 0 97.5-96Zm0 29c23.6 23 47 46.3 70 70a6762.6 6762.6 0 0 0-69.5 69L152.5 227c23.2-23 46.2-46.2 69-69.5Z"/><path fill="currentColor" d="M58.5 112.5c1 6.5 1.3 13.1 1 20-13.5.3-26.8 0-40-1h39v-19Z" opacity=".4"/><path fill="currentColor" d="M40.5 152.5c23.8-1.2 47.8-1.3 72-.5-.5.7-1.2 1.2-2 1.5a1225 1225 0 0 0-70-1Z" opacity=".5"/><path fill="currentColor" d="M403.5 152.5c-23.2-.3-46.2 0-69 1-.8-.3-1.5-.8-2-1.5 23.8-.8 47.5-.7 71 .5Z" opacity=".6"/><path fill="currentColor" d="M40.5 152.5c23.5-.3 46.8 0 70 1a423 423 0 0 1-17 17.5c-8.3.5-16.7.7-25 .5-2.4-1-5.1-1.3-8-1-.3 37.8 0 75.5 1 113a512 512 0 0 1 32 .5c6.6 5.6 13 11.6 19 18-24 1.5-48 2-72 1.5a532.9 532.9 0 0 1 0-64h-19v26c-1.4.2-2.7 0-4-.5a443 443 0 0 0-18-17.5v-37c5.1-4.6 10.1-9.5 15-14.5l4.5-2.5a4 4 0 0 1 2 1c.2 8.4.7 16.7 1.5 25 6-1 12-1.3 18-1v-66ZM403.5 152.5c1 21.8 1.3 43.8 1 66 6.7.2 13.3 0 20-.5v-24.5c1-.1 2 0 3 .5 6.2 6.7 12.9 13 20 18.5v34l-17 16.5a9.3 9.3 0 0 1-6 2.5v-26h-20c-1 20.8-1.3 41.8-1 63h-70c5.7-6.2 11.7-12.4 18-18.5 11-.5 22-.7 33-.5-1.3-37-1.3-74 0-111-10.6-2-21.6-2.6-33-2-6-5.3-11.6-11-17-17 22.8-1 45.8-1.3 69-1Z"/><path fill="currentColor" d="M351.5 170.5c11.4-.6 22.4 0 33 2l-33-2Z" opacity=".6"/><path fill="currentColor" d="M237.5 236.5c-7.4 8.7-16 10.2-26 4.5-8.3-9.3-8-18.3 1-27 11.7-5.7 20.2-2.6 25.5 9.5.5 4.7.3 9-.5 13Z"/><path fill="currentColor" d="M68.5 171.5h-7v112c-1-37.5-1.3-75.2-1-113 2.9-.3 5.6 0 8 1Z" opacity=".1"/><path fill="currentColor" d="M95.5 229.5c35.6 34.4 71.1 69.1 106.5 104a8 8 0 0 1-2 5l-12 12A8098 8098 0 0 0 80.5 244c4.9-5 9.9-9.9 15-14.5ZM347.5 229.5c5.4 5 10.8 10 16 15.5L256 350.5c-5.2-4.9-10-10-14.5-15.5 35.7-35 71-70.1 106-105.5Z"/><path fill="currentColor" d="M404.5 239.5c.3 21.2.3 42.6 0 64-23.8.3-47.5 0-71-1h70c-.3-21.2 0-42.2 1-63Z" opacity=".7"/><path fill="currentColor" d="M122.5 313.5c5.5 5 10.8 10.1 16 15.5-4.5 4.7-9.2 9.2-14 13.5a53.5 53.5 0 0 1-14-16l12-13ZM320.5 313.5a94.7 94.7 0 0 1 15 13.5c-4.5 5.8-9.7 11-15.5 15.5-5-3.8-9.5-8.1-13.5-13 4.3-5.6 9-11 14-16ZM90.5 324.5c.5 4.5 1.6 8.9 3.5 13 5 6.1 10.5 11.8 16.5 17a3 3 0 0 1 1 3c-6.7.2-13.3 0-20-.5l-13-13c-13-.5-26-.7-39-.5-1 6.5-1.3 13.1-1 20h32c3.6.4 5.7 2.4 6.5 6 .8 11 .6 22-.5 33h34c-.5-9.7-.6-19.3-.5-29 6.4-1 13-1.3 19.5-1 .7 16.7 0 33-2 49-18.4.7-36.4 0-54-2a43.5 43.5 0 0 0-13-33.5 15.4 15.4 0 0 0-6-3 605 605 0 0 1-35-1.5v-57h71ZM353.5 323.5H366c.7 6.7.7 13.3 0 20-3.8 4.8-8 9.3-12.5 13.5-6.7.5-13.3.7-20 .5-.1-1 0-2 .5-3 7.4-5.4 13.4-12 18-20l1.5-11Z"/><path fill="currentColor" d="M389.5 323.5c11.8 1 23.8 1.3 36 1a601 601 0 0 0 1 49c.3 3 0 5.8-1 8.5l-32 1a29.4 29.4 0 0 0-16.5 14.5c-2.6 7.8-4.4 15.8-5.5 24a420.6 420.6 0 0 1-56.5 0c-.7-16-.7-32 0-48 6.4-1 13-1.3 19.5-1 .5 9.7.5 19.4 0 29 11 1 22 1.3 33 1a512 512 0 0 1 .5-32c1-3.2 2.8-5.7 5.5-7.5a512 512 0 0 1 32-.5 45.6 45.6 0 0 0 0-19h-21v-20h5Z"/><path fill="currentColor" d="M90.5 324.5h-71v57c-1-19.2-1.3-38.5-1-58 24.2-.3 48.2 0 72 1Z" opacity=".6"/><path fill="currentColor" d="M152.5 342.5c13.6 12 26.7 24.7 39.5 38 1.8 5.6 2 11.3.5 17-4.4.3-8.7 0-13-1a2174.4 2174.4 0 0 1-39.5-39c-.7-.7-.7-1.3 0-2 4.4-4.2 8.5-8.5 12.5-13ZM233.5 447.5h-22c-.8-4-1.1-8-1-12h-22v-20H211c.4-14 .6-27.8.5-41.5a108 108 0 0 0-8-9.5c5.6-7.1 11.8-13.8 18.5-20 7 6.2 13 13 18.5 20.5a4299 4299 0 0 1-6.5 8.5c-.5 14-.7 28-.5 42 7.4-.2 14.7.1 22 1v19h-22c.2 4.2.2 8.2 0 12ZM290.5 342.5c5 4.3 9.6 9 14 14a763.2 763.2 0 0 1-40 40.5c-4.7.5-9.3.7-14 .5-.2-5 0-10 .5-15 1-.8 1.6-1.8 2-3 13-11.8 25.5-24.2 37.5-37Z"/><path fill="currentColor" d="M405.5 343.5a45.6 45.6 0 0 1 0 19c-.2-6.5-.2-12.8 0-19Z" opacity=".1"/><path fill="currentColor" d="M389.5 323.5h37v50a601 601 0 0 1-1-49c-12.2.3-24.2 0-36-1ZM39.5 343.5v19c10.5-.3 20.8 0 31 1h-32c-.3-6.9 0-13.5 1-20Z" opacity=".6"/><path fill="currentColor" d="M30.5 397.5c16.6-1.2 24.4 6.4 23.5 23-7 13.7-17.1 16.8-30.5 9.5-7.5-7.3-8.7-15.5-3.5-24.5 3-3.5 6.5-6.2 10.5-8ZM427.5 410.5v11c-5.4 12.1-14.4 15.6-27 10.5-11.6-10.3-12-21-1-32 13-6.2 22.4-2.7 28 10.5ZM427.5 410.5c2.7 3.7 2.7 7.3 0 11v-11Z"/><path fill="currentColor" d="M73.5 419.5c17.6 2 35.6 2.7 54 2-18.2 1-36.5 1.3-55 1-.2-1.3.1-2.3 1-3Z" opacity=".5"/></svg>
